# xmcd
#
# Track frame offsets:
#	150
#	12715
#	23932
#	34050
#	47005
#	55687
#	65782
#	77017
#	88062
#	101010
#	110907
#	122660
#	133245
#	142847
#	153482
#	185137
#	195602
#
# Disc length: 2780 seconds
#
# Revision: 0
# Processed by: cddbd v1.4PL0 Copyright (c) Steve Scherf et al.
# Submitted via: dBpowerAMP V4.0
#
DISCID=f70ada11
DTITLE=Johnny Bond - The Very Best of Johnny Bond
DYEAR=1900
DGENRE=Country
TTITLE0=Hot Rod Lincoln
TTITLE1=The way a star is born
TTITLE2=The little rock roll
TTITLE3=Side Car Cycle
TTITLE4=Wild Cat Baby
TTITLE5=Buck privates lament
TTITLE6=Like nothing man
TTITLE7=The Tijuana jail
TTITLE8=Fools Paradise
TTITLE9=Louisiana Swing
TTITLE10=I wonder where you are tonight
TTITLE11=Old Couch
TTITLE12=Tomorrow never comes
TTITLE13=The late and great myself
TTITLE14=Ten Little Bottles
TTITLE15=Cimarron Roll On
TTITLE16=Hot Rod Linclon (stero undub)
EXTD=
EXTT0=
EXTT1=
EXTT2=
EXTT3=
EXTT4=
EXTT5=
EXTT6=
EXTT7=
EXTT8=
EXTT9=
EXTT10=
EXTT11=
EXTT12=
EXTT13=
EXTT14=
EXTT15=
EXTT16=
PLAYORDER=
